<svg width="25" height="22" viewBox="0 0 25 22" fill="none" xmlns="http://www.w3.org/2000/svg">
<path d="M12.2433 21.988C11.7284 21.9879 11.231 21.801 10.8433 21.462C9.92734 20.662 9.06033 19.92 8.25133 19.232C6.18765 17.579 4.25982 15.7631 2.48635 13.8019C0.943637 12.1385 0.0601421 9.96987 0.00133206 7.70197V7.69495C-0.0352979 5.69431 0.684695 3.75363 2.01732 2.26099L2.02434 2.25299C2.67469 1.54391 3.46526 0.97764 4.34594 0.590149C5.22661 0.202658 6.17819 0.00236527 7.14034 0.00195328H7.21035C8.68409 0.00368144 10.1144 0.500994 11.2713 1.41394C11.6217 1.68664 11.9492 1.98767 12.2503 2.31397C12.5511 1.98798 12.8778 1.68696 13.2273 1.41394C14.3851 0.500125 15.8164 0.00216908 17.2913 1.54767e-07H17.3483C18.3112 -0.000203086 19.2635 0.199768 20.1449 0.58728C21.0264 0.974793 21.8176 1.54136 22.4683 2.25098L22.4753 2.25897C23.8085 3.75095 24.5289 5.69144 24.4923 7.69196V7.698C24.4352 9.9653 23.5534 12.134 22.0123 13.798C20.236 15.7573 18.3055 17.5712 16.2393 19.222C15.6093 19.759 14.6573 20.5719 13.6393 21.4579C13.2533 21.7975 12.7574 21.9858 12.2433 21.988ZM1.55733 7.66498C1.60749 9.55408 2.34449 11.3601 3.63033 12.745L3.63732 12.753C5.35986 14.6565 7.23256 16.4185 9.23732 18.022L9.25533 18.037C10.0353 18.701 10.9463 19.4769 11.8723 20.2889C11.9754 20.379 12.1075 20.4287 12.2443 20.429H12.2493C12.3863 20.4283 12.5184 20.3783 12.6213 20.288C13.6473 19.388 14.6083 18.5709 15.2423 18.0309L15.2613 18.015C17.2659 16.4134 19.1386 14.6534 20.8613 12.752L20.8673 12.746C22.1523 11.3598 22.8876 9.55252 22.9353 7.66296C22.9641 6.05717 22.3863 4.49958 21.3173 3.30096C20.8126 2.75169 20.1993 2.31323 19.5162 2.01337C18.8332 1.7135 18.0953 1.55876 17.3493 1.55896H17.2923C16.1672 1.56031 15.0752 1.94043 14.1923 2.638C13.6942 3.02764 13.2544 3.48661 12.8863 4.00098L12.2513 4.888L11.6183 4C11.2528 3.48552 10.8149 3.02642 10.3183 2.63696C9.43559 1.93941 8.34342 1.56 7.21834 1.56H7.14834C6.40305 1.56042 5.66597 1.71542 4.98366 2.01526C4.30136 2.3151 3.68867 2.75321 3.18435 3.30194C2.11239 4.49977 1.53141 6.05774 1.55733 7.66498Z" fill="#B0B7B7"/>
</svg>
